<?xml version="1.0" standalone="no"?>
<!DOCTYPE svg PUBLIC "-//W3C//DTD SVG 20010904//EN"
 "http://www.w3.org/TR/2001/REC-SVG-20010904/DTD/svg10.dtd">
<svg version="1.0" xmlns="http://www.w3.org/2000/svg"
 width="700.000000pt" height="700.000000pt" viewBox="0 0 700.000000 700.000000"
 preserveAspectRatio="xMidYMid meet">
<metadata>
Created by potrace 1.14, written by Peter Selinger 2001-2017
</metadata>
<g transform="translate(0.000000,700.000000) scale(0.100000,-0.100000)"
fill="#000000" stroke="none">
<path d="M3427 5835 c-1 -1 -45 -5 -97 -8 -52 -4 -104 -8 -115 -11 -11 -2 -46
-7 -77 -10 -78 -9 -276 -59 -387 -96 -584 -199 -1057 -613 -1340 -1174 -109
-215 -205 -535 -226 -751 -4 -38 -9 -79 -11 -90 -7 -33 -6 -315 1 -390 9 -102
25 -205 51 -325 3 -14 7 -36 10 -50 13 -69 112 -339 162 -440 265 -548 727
-968 1297 -1179 110 -41 305 -94 380 -104 22 -3 47 -8 55 -11 8 -2 42 -7 75
-11 33 -3 74 -8 90 -10 45 -7 353 -7 410 0 333 39 546 98 815 228 506 243 919
681 1136 1204 165 396 218 849 148 1268 -19 114 -67 297 -104 399 l-29 79 31
45 c65 94 95 255 73 392 -18 120 -91 308 -168 434 -39 63 -137 201 -171 239
-13 16 -40 47 -58 69 -70 87 -134 84 -214 -9 -63 -72 -161 -200 -167 -216 -2
-8 -17 -2 -43 18 -21 16 -41 32 -44 36 -19 26 -280 184 -395 240 -211 102
-517 195 -705 214 -135 13 -375 26 -383 20z"/>
</g>
</svg>
